# xmcd
#
# Track frame offsets:
# 150
# 16617
# 32550
# 45935
# 58257
# 71437
# 84495
# 100090
# 112687
# 123795
# 137912
# 149532
# 165005
# 181992
#
# Disc length: 2655 seconds
#
#
# Revision: 0
# Processed by: cddbd v1.5.1PL0 Copyright (c) Steve Scherf et al.
# Submitted via: FreeRIP 2.93 
#
DISCID=a40a5d0e
DTITLE=Jackson Carl - Nashville Country
DYEAR=1984
DGENRE=Country
TTITLE0=Gone, gone, gone
TTITLE1=To keep your memory green
TTITLE2=Under your spell again
TTITLE3=Walk through this world with me
TTITLE4=All that's left for me
TTITLE5=Something draws me to you
TTITLE6=When my blue moon turns to gold again
TTITLE7=You made a memory of me
TTITLE8=I take the chance
TTITLE9=Before I met you
TTITLE10=We must have been out of our minds
TTITLE11=Dyin' on sorrow's wine
TTITLE12=The best we could do
TTITLE13=Nobody's darlin' but mine
EXTD=
EXTT0=
EXTT1=
EXTT2=
EXTT3=
EXTT4=
EXTT5=
EXTT6=
EXTT7=
EXTT8=
EXTT9=
EXTT10=
EXTT11=
EXTT12=
EXTT13=
PLAYORDER=
